<svg width="1200" height="800" xmlns="http://www.w3.org/2000/svg">
  <defs>
    <linearGradient id="bg" x1="0" y1="0" x2="1" y2="1">
      <stop offset="0%" stop-color="#fff1df"/>
      <stop offset="100%" stop-color="#7b1e1e"/>
    </linearGradient>
  </defs>

  <rect width="1200" height="800" fill="url(#bg)"/>
  <circle cx="940" cy="160" r="170" fill="#ffffff" opacity="0.16"/>

  <rect x="365" y="250" width="470" height="350" rx="42" fill="#ffffff" opacity="0.95"/>
  <rect x="430" y="325" width="340" height="70" rx="35" fill="#c70012"/>
  <rect x="455" y="440" width="290" height="80" rx="40" fill="#333333"/>
  <rect x="510" y="170" width="180" height="105" rx="52" fill="#ffffff"/>

  <path d="M420 205 C390 150 455 125 430 80" stroke="#ffffff" stroke-width="20" fill="none" opacity="0.8"/>
  <path d="M570 190 C540 135 605 110 580 65" stroke="#ffffff" stroke-width="20" fill="none" opacity="0.8"/>
  <path d="M720 205 C690 150 755 125 730 80" stroke="#ffffff" stroke-width="20" fill="none" opacity="0.8"/>

  <rect x="300" y="615" width="600" height="36" rx="18" fill="#ffffff" opacity="0.8"/>
</svg>
